<svg width="15" height="14" viewBox="0 0 15 14" fill="none" xmlns="http://www.w3.org/2000/svg">
<path fill-rule="evenodd" clip-rule="evenodd" d="M8.78835 1.99123L7.49405 3.32495L6.1986 1.99005C5.05257 0.805197 3.26031 0.672445 2.104 1.65764C0.711347 2.84663 0.634216 4.9945 1.88371 6.28674L7.49259 12.0782L13.1015 6.28674C14.3536 4.99454 14.2768 2.84644 12.8839 1.65744M6.82957 12.831L1.16537 6.98243C-0.479738 5.2817 -0.383139 2.4657 1.45516 0.896706C3.01553 -0.433026 5.31819 -0.236639 6.79512 1.17334C6.83654 1.21288 6.8773 1.25337 6.91739 1.29481L7.49405 1.88904L8.07072 1.29481C8.11084 1.25341 8.15164 1.21296 8.19309 1.17345C9.67256 -0.236629 11.9725 -0.433061 13.5329 0.896706C15.3712 2.4657 15.4678 5.2817 13.8198 6.98243L8.15561 12.831C7.7897 13.2087 7.19547 13.2087 6.82957 12.831ZM8.78835 1.99123C9.93781 0.805212 11.7279 0.672917 12.8839 1.65744Z" fill="black"/>
</svg>
