<svg width="20" height="20" viewBox="0 0 20 20" fill="none" xmlns="http://www.w3.org/2000/svg">
<path fill-rule="evenodd" clip-rule="evenodd" d="M19.12 0.259671C19.4831 0.318537 19.75 0.632116 19.75 1.00001V1.01001C19.75 1.11469 19.7281 1.21712 19.6869 1.31117L13.9416 18.5669C13.4493 20.0439 11.4176 20.1741 10.7444 18.7757C10.7443 18.7755 10.7445 18.7759 10.7444 18.7757L7.53456 12.126C7.39589 11.8388 7.4541 11.4952 7.67965 11.2697L18.4015 0.547867C18.5652 0.33121 18.8393 0.214174 19.12 0.259671ZM17.2806 3.7901L9.11697 11.9537L12.0959 18.1249C12.1829 18.3058 12.4509 18.2957 12.5185 18.0928L17.2806 3.7901Z" fill="white"/>
<path fill-rule="evenodd" clip-rule="evenodd" d="M19.6485 0.596166C19.8312 0.892147 19.7863 1.27485 19.5403 1.52064L8.74056 12.3203C8.51477 12.5461 8.17077 12.6042 7.88337 12.465L1.23513 9.24588C1.2347 9.24567 1.23427 9.24546 1.23384 9.24526C-0.162824 8.57215 -0.0346946 6.53108 1.44306 6.03849L18.7737 0.278288C19.1037 0.168592 19.4659 0.300185 19.6485 0.596166ZM16.2377 2.70185L1.9174 7.46152C1.91736 7.46153 1.91745 7.4615 1.9174 7.46152C1.71575 7.52886 1.70342 7.80662 1.88534 7.89413L1.8871 7.89497L8.05704 10.8825L16.2377 2.70185Z" fill="white"/>
</svg>
