<svg width="14" height="13" viewBox="0 0 14 13" fill="none" xmlns="http://www.w3.org/2000/svg">
<path d="M7.47553 1.08156L8.32058 3.68237C8.52139 4.30041 9.09733 4.71885 9.74717 4.71885H12.4818C12.9662 4.71885 13.1676 5.33866 12.7757 5.62336L10.5633 7.23075C10.0376 7.61271 9.81762 8.28976 10.0184 8.9078L10.8635 11.5086C11.0132 11.9693 10.4859 12.3523 10.0941 12.0676L7.88168 10.4602C7.35595 10.0783 6.64405 10.0783 6.11832 10.4602L3.90594 12.0676C3.51408 12.3523 2.98684 11.9693 3.13652 11.5086L3.98157 8.9078C4.18238 8.28976 3.9624 7.61271 3.43667 7.23075L1.22428 5.62336C0.832426 5.33865 1.03382 4.71885 1.51818 4.71885H4.25283C4.90267 4.71885 5.4786 4.30041 5.67942 3.68237L6.52447 1.08156C6.67415 0.620904 7.32585 0.620906 7.47553 1.08156Z" stroke="#FEBD33"/>
</svg>
