<svg width="21" height="21" viewBox="0 0 21 21" fill="none" xmlns="http://www.w3.org/2000/svg">
<rect width="21" height="21" rx="4" fill="#D9D9D9"/>
<path d="M10.5053 16.0512H10.4894C10.4404 16.0512 5.52966 16.0417 4.2907 15.7052C3.60941 15.5217 3.07735 14.9893 2.8942 14.3079C2.67141 13.051 2.56382 11.7765 2.57278 10.5C2.56703 9.22148 2.67752 7.94507 2.90291 6.68655C3.09109 6.00454 3.62081 5.46972 4.30099 5.27501C5.50591 4.95834 10.2812 4.95834 10.4839 4.95834H10.5005C10.5504 4.95834 15.4738 4.96784 16.7001 5.3043C17.3799 5.48877 17.9109 6.02005 18.095 6.70001C18.3249 7.96156 18.4328 9.24232 18.4172 10.5246C18.4227 11.8015 18.312 13.0764 18.0863 14.3333C17.9008 15.0138 17.3684 15.545 16.6874 15.729C15.4841 16.048 10.7079 16.0512 10.5053 16.0512ZM8.92195 8.12897L8.91799 12.879L13.0442 10.504L8.92195 8.12897Z" fill="#303030"/>
</svg>
